<svg version="1.1" xmlns="http://www.w3.org/2000/svg" xmlns:xlink="http://www.w3.org/1999/xlink" width="2068" height="642" viewBox="0 0 2068 642"><defs/><g transform="matrix(1,0,0,1,0,0)"><g><g><g><path fill="none" stroke="#d3d3d3" paint-order="fill stroke markers" d=" M 0 0 L 1200 0" stroke-miterlimit="10" stroke-opacity="0.8" stroke-dasharray="5"/></g><g><path fill="none" stroke="#d3d3d3" paint-order="fill stroke markers" d=" M 0 0 L 0 800" stroke-miterlimit="10" stroke-opacity="0.8" stroke-dasharray="5"/></g></g><g id="_DB8F355C-29CB-4F1A-9DD2-DCF97BF7B302" bpmn2nodeid="_DB8F355C-29CB-4F1A-9DD2-DCF97BF7B302" transform="matrix(1,0,0,1,64,284)"><g><path fill="none" stroke="none"/></g><g transform="matrix(0.125,0,0,0.125,0,0)"><g transform="matrix(1,0,0,1,0,0)"><path fill="#e8fae6" stroke="none" id="_DB8F355C-29CB-4F1A-9DD2-DCF97BF7B302?shapeType=BACKGROUND" paint-order="stroke fill markers" d=" M 0 0 M 444 224 C 444 263.9 434.2 300.8 414.4 334.5 C 394.7 368.2 368 394.9 334.4 414.5 C 300.79999999999995 434.1 263.9 444 224 444 C 184.10000000000002 444 147.2 434.2 113.5 414.4 C 79.8 394.7 53.1 368 33.5 334.4 C 13.899999999999999 300.79999999999995 4 263.9 4 224 C 4 184.10000000000002 13.8 147.2 33.6 113.5 C 53.400000000000006 79.80000000000001 80.1 53.1 113.6 33.5 C 147.1 13.899999999999999 184.1 4 224 4 C 263.9 4 300.8 13.8 334.5 33.6 C 368.2 53.400000000000006 394.9 80.1 414.5 113.6 C 434.1 147.1 444 184.1 444 224 Z"/></g><g><g transform="matrix(1,0,0,1,0,0)"><g transform="matrix(1,0,0,1,0,0)"><path fill="rgb(74,162,65)" stroke="none" id="_DB8F355C-29CB-4F1A-9DD2-DCF97BF7B302?shapeType=BORDER&amp;renderType=FILL" paint-order="stroke fill markers" d=" M 0 0 M 224 0 C 100.3 0 0 100.3 0 224 C 0 347.7 100.3 448 224 448 C 347.7 448 448 347.7 448 224 C 448 100.30000000000001 347.7 0 224 0 Z M 0 0 M 224 432 C 109.1 432 16 338.9 16 224 C 16 109.10000000000002 109.1 16 224 16 C 338.9 16 432 109.1 432 224 C 432 338.9 338.9 432 224 432 Z"/></g></g></g></g><g transform="matrix(1,0,0,1,28,61)"/></g><g transform="matrix(1,0,0,1,64,284)"/><g id="_91BBCB3E-45A5-45EB-B0FE-D7F046CC1841" bpmn2nodeid="_91BBCB3E-45A5-45EB-B0FE-D7F046CC1841" transform="matrix(1,0,0,1,1962.142857142857,283.57142857142856)"><g><path fill="none" stroke="none"/></g><g transform="matrix(0.125,0,0,0.125,0,0)"><g transform="matrix(1,0,0,1,0,0)"><path fill="#fce7e7" stroke="none" id="_91BBCB3E-45A5-45EB-B0FE-D7F046CC1841?shapeType=BACKGROUND" paint-order="stroke fill markers" d=" M 0 0 M 444 224 C 444 263.9 434.2 300.8 414.4 334.5 C 394.7 368.2 368 394.9 334.4 414.5 C 300.79999999999995 434.1 263.9 444 224 444 C 184.10000000000002 444 147.2 434.2 113.5 414.4 C 79.8 394.7 53.1 368 33.5 334.4 C 13.899999999999999 300.79999999999995 4 263.9 4 224 C 4 184.10000000000002 13.8 147.2 33.6 113.5 C 53.400000000000006 79.80000000000001 80.1 53.1 113.6 33.5 C 147.1 13.899999999999999 184.1 4 224 4 C 263.9 4 300.8 13.8 334.5 33.6 C 368.2 53.400000000000006 394.9 80.1 414.5 113.6 C 434.1 147.1 444 184.1 444 224 Z"/></g><g><g transform="matrix(1,0,0,1,0,0)"><g transform="matrix(1,0,0,1,0,0)"><path fill="rgb(163,0,0)" stroke="none" id="_91BBCB3E-45A5-45EB-B0FE-D7F046CC1841?shapeType=BORDER&amp;renderType=FILL" paint-order="stroke fill markers" d=" M 0 0 M 224 0 C 100.3 0 0 100.3 0 224 C 0 347.7 100.3 448 224 448 C 347.7 448 448 347.7 448 224 C 448 100.30000000000001 347.7 0 224 0 Z M 0 0 M 224 400 C 126.8 400 48 321.2 48 224 C 48 126.80000000000001 126.8 48 224 48 C 321.2 48 400 126.8 400 224 C 400 321.2 321.2 400 224 400 Z"/></g></g></g></g><g transform="matrix(1,0,0,1,28,61)"/></g><g transform="matrix(1,0,0,1,1962.142857142857,283.57142857142856)"/><g id="_1292F350-00B5-4E8E-85DE-518DC30422E1" bpmn2nodeid="_1292F350-00B5-4E8E-85DE-518DC30422E1" transform="matrix(1,0,0,1,165,31)"><g><path fill="none" stroke="none"/></g><g transform="matrix(1,0,0,1,0,0)"><path fill="#ffffff" stroke="none" id="_1292F350-00B5-4E8E-85DE-518DC30422E1?shapeType=BACKGROUND" paint-order="stroke fill markers" d=" M 5 0 L 1712.142857142857 0 L 1712.142857142857 0 A 5 5 0 0 1 1717.142857142857 5 L 1717.142857142857 556.1428571428571 L 1717.142857142857 556.1428571428571 A 5 5 0 0 1 1712.142857142857 561.1428571428571 L 5 561.1428571428571 L 5 561.1428571428571 A 5 5 0 0 1 0 556.1428571428571 L 0 5 L 0 5.000000000000001 A 5 5 0 0 1 4.999999999999999 0 Z"/></g><g transform="matrix(1,0,0,1,0,0)"><path fill="none" stroke="rgb(0,136,206)" id="_1292F350-00B5-4E8E-85DE-518DC30422E1?shapeType=BORDER&amp;renderType=STROKE" paint-order="fill stroke markers" d=" M 5 0 L 1712.142857142857 0 L 1712.142857142857 0 A 5 5 0 0 1 1717.142857142857 5 L 1717.142857142857 556.1428571428571 L 1717.142857142857 556.1428571428571 A 5 5 0 0 1 1712.142857142857 561.1428571428571 L 5 561.1428571428571 L 5 561.1428571428571 A 5 5 0 0 1 0 556.1428571428571 L 0 5 L 0 5.000000000000001 A 5 5 0 0 1 4.999999999999999 0 Z" stroke-miterlimit="10" stroke-width="1.5" stroke-dasharray=""/></g><g transform="matrix(1,0,0,1,561.5714285714286,328.1428571428571)"><g transform="matrix(0.05,0,0,0.05,285,209)"><g transform="matrix(1,0,0,1,0,0)"><path fill="#000000" stroke="#000000" id="_1292F350-00B5-4E8E-85DE-518DC30422E1undefined" paint-order="fill stroke markers" d=" M 0 0 M 92 44 L 92 468 C 92 474.6 86.6 480 80 480 L 48 480 C 41.4 480 36 474.6 36 468 L 36 44 C 36 37.4 41.4 32 48 32 L 80 32 C 86.6 32 92 37.4 92 44 Z M 0 0 M 252 44 L 252 468 C 252 474.6 246.6 480 240 480 L 208 480 C 201.4 480 196 474.6 196 468 L 196 44 C 196 37.4 201.4 32 208 32 L 240 32 C 246.6 32 252 37.4 252 44 Z M 0 0 M 412 44 L 412 468 C 412 474.6 406.6 480 400 480 L 368 480 C 361.4 480 356 474.6 356 468 L 356 44 C 356 37.4 361.4 32 368 32 L 400 32 C 406.6 32 412 37.4 412 44 Z" stroke-miterlimit="10" stroke-dasharray=""/></g><g transform="matrix(1,0,0,1,0,0)"><path fill="none" stroke="none"/></g></g></g><g transform="matrix(1,0,0,1,747.0128348214286,0)"><text fill="#000000" stroke="none" font-family="Open Sans" font-size="12pt" font-style="normal" font-weight="normal" text-decoration="normal" x="111.55859375" y="12" text-anchor="middle" dominant-baseline="alphabetic">Multiple Instance Sub-process</text></g></g><g id="_A117B9C7-E832-43D1-817C-0774DA952495" bpmn2nodeid="_A117B9C7-E832-43D1-817C-0774DA952495"><g><path fill="none" stroke="rgb(0,0,0)" paint-order="fill stroke markers" d=" M 120 311.83561643835617 L 150.0002584941662 311.65948967615947" stroke-miterlimit="10" stroke-dasharray=""/></g><g transform="matrix(1,0,0,1,120,311.83561643835617)"/><g transform="matrix(0.0058707403153942465,0.9999827670555874,-0.9999827670555874,0.0058707403153942465,164.97064629842302,306.5715147361506)"><path fill="rgb(0,0,0)" stroke="rgb(0,0,0)" paint-order="fill stroke markers" d=" M 10 15 L 0 15 L 5 0 Z" stroke-miterlimit="10" stroke-dasharray=""/></g><g transform="matrix(1,0,0,1,120.05870740315396,301.7036948343365)"/></g><g id="_7EECA946-3C5B-4F32-8E47-2C0B09294460" bpmn2nodeid="_7EECA946-3C5B-4F32-8E47-2C0B09294460"><g><path fill="none" stroke="#000000" paint-order="fill stroke markers" d=" M 1882.142857142857 311.57142857142856 L 1947.142857142857 311.57142857142856" stroke-miterlimit="10" stroke-dasharray=""/></g><g transform="matrix(1,0,0,1,1882.142857142857,311.57142857142856)"/><g transform="matrix(6.123233995736766e-17,1,-1,6.123233995736766e-17,1962.142857142857,306.57142857142856)"><path fill="#000000" stroke="#000000" paint-order="fill stroke markers" d=" M 10 15 L 0 15 L 5 0 Z" stroke-miterlimit="10" stroke-dasharray=""/></g><g transform="matrix(1,0,0,1,1882.142857142857,301.57142857142856)"/></g><g transform="matrix(1,0,0,1,165,31)"/></g></g></svg>